<svg preserveAspectRatio="none" overflow="visible" style="display: block;" width="19" height="19" viewBox="0 0 19 19" fill="none" xmlns="http://www.w3.org/2000/svg">
<g id="Icon" clip-path="url(#clip0_0_54)">
<path id="Vector" d="M3.16667 16.625C3.16667 14.9453 3.83393 13.3344 5.02166 12.1467C6.20939 10.9589 7.8203 10.2917 9.5 10.2917C11.1797 10.2917 12.7906 10.9589 13.9783 12.1467C15.1661 13.3344 15.8333 14.9453 15.8333 16.625M9.5 6.33333C10.3399 6.33333 11.1453 5.9997 11.7392 5.40584C12.333 4.81197 12.6667 4.00652 12.6667 3.16667C12.6667 2.32681 12.333 1.52136 11.7392 0.927495C11.1453 0.33363 10.3399 -2.38419e-07 9.5 -2.38419e-07C8.66015 -2.38419e-07 7.85469 0.33363 7.26083 0.927495C6.66696 1.52136 6.33333 2.32681 6.33333 3.16667C6.33333 4.00652 6.66696 4.81197 7.26083 5.40584C7.85469 5.9997 8.66015 6.33333 9.5 6.33333Z" stroke="#4AAAC4" stroke-width="1.74167" stroke-linecap="round" stroke-linejoin="round"/>
</g>
<defs>
<clipPath id="clip0_0_54">
<rect width="19" height="19" fill="white"/>
</clipPath>
</defs>
</svg>
